<svg width="1280" height="720" viewBox="0 0 1280 720" fill="none" xmlns="http://www.w3.org/2000/svg">
<path d="M1161.59 2303.38C910.354 2295.48 814.911 2362.9 769.797 2382.28C751.914 2401.14 1443.79 2419.38 1443.79 2419.38C1447.86 2202.65 1451.19 1810.25 1433.6 2032.25C1416.01 2254.26 1238.56 2303.53 1161.59 2303.38Z" fill="#FF5000"/>
<path d="M1190.83 2298.79C939.298 2297.4 857.522 2361.08 813.096 2381.86C823.393 2382.24 1447.94 2402.94 1447.94 2402.94C1444.3 2183.78 1431.95 1844.35 1435.42 2023.79C1440.07 2264.14 1267.81 2296.91 1190.83 2298.79Z" fill="#021527"/>
<path d="M273.537 129.126C524.773 137.03 620.216 69.612 665.33 50.2273C683.213 31.3668 -8.65966 13.1285 -8.65966 13.1285C-12.7372 229.856 -16.0607 622.264 1.52588 400.257C19.1124 178.251 196.57 128.985 273.537 129.126Z" fill="#FF5000"/>
<path d="M244.297 133.721C495.828 135.115 577.604 71.4259 622.031 50.6491C611.734 50.2734 -12.817 29.5703 -12.817 29.5703C-9.17815 248.728 3.17719 588.157 -0.293673 408.722C-4.94293 168.367 167.32 135.599 244.297 133.721Z" fill="#021527"/>
</svg>
